<svg width="1024" height="1024" viewBox="0 0 1024 1024" fill="none" xmlns="http://www.w3.org/2000/svg">
<path d="M198.831 734.609H76.1264V299.34H198.831V373.129H203.805C211.543 349.914 224.809 330.293 243.601 314.264C262.946 297.682 288.648 289.391 320.706 289.391C350.553 289.391 375.978 296.853 396.981 311.776C417.985 326.7 433.185 348.533 442.581 377.274H445.068C452.806 352.954 468.559 332.227 492.326 315.093C516.093 297.958 544.558 289.391 577.721 289.391C619.728 289.391 651.786 304.591 673.895 334.991C696.557 364.838 707.887 407.121 707.887 461.84V734.609H585.183V471.789C585.183 443.601 580.209 422.874 570.26 409.608C560.863 395.79 545.94 388.881 525.489 388.881C513.329 388.881 501.722 391.368 490.668 396.343C479.613 400.765 470.493 407.674 463.308 417.07C456.675 426.466 453.359 438.35 453.359 452.721V734.609H330.655V471.789C330.655 443.601 325.68 422.874 315.731 409.608C305.782 395.79 290.859 388.881 270.961 388.881C259.354 388.881 248.023 391.368 236.968 396.343C225.914 400.765 216.794 407.674 209.609 417.07C202.423 426.466 198.831 438.35 198.831 452.721V734.609Z" fill="#0000FF"/>
<path d="M856.233 734.609C824.992 734.609 801.735 726.625 786.461 710.657C771.882 694.69 764.593 674.903 764.593 651.299V630.472C764.593 606.173 771.882 586.387 786.461 571.114C801.735 555.146 824.992 547.162 856.233 547.162C887.474 547.162 910.384 555.146 924.964 571.114C940.237 586.387 947.874 606.173 947.874 630.472V651.299C947.874 674.903 940.237 694.69 924.964 710.657C910.384 726.625 887.474 734.609 856.233 734.609Z" fill="#0000FF"/>
</svg>
